<svg version="1.1" xmlns="http://www.w3.org/2000/svg" xmlns:xlink="http://www.w3.org/1999/xlink" x="100" y="100"
    viewBox="0 0 1000 1000" enable-background="new 0 0 1000 1000" xml:space="preserve">
    <path fill="#D1FF61" stroke="rgba(120,120,120,0.5)" stroke-miterlimit="10" d="M271.5,506.3V506c105,0,190.3-84.9,190.3-189.9
	   s-84.9-189.9-189.9-189.9S82,211.5,82,316.5h40.5c0-83,67.2-150.3,150-150.3s150,67,150,149.9s-67.2,149.9-150,149.9
	   c-0.2,0-0.8,0.2-0.8,0.2c-104.9,0-190.3,85.3-190.3,190.3v40h318v-40h-277C122.5,573.7,189.5,506.5,271.5,506.3z" />
    <path fill="#D1FF61" stroke="rgba(120,120,120,0.5)" stroke-miterlimit="10" d="M522,437c-138.1,0-250,111.9-250,250s111.9,250,250,250
	   s250-111.9,250-250S660.1,437,522,437z M522,897c-116,0-210-94-210-210s94-210,210-210s210,94,210,210S638,897,522,897z" />
    <rect x="576" y="63" fill="#D1FF61" stroke="rgba(120,120,120,0.5)" stroke-miterlimit="10" width="40" height="550" />
    <polygon fill="#D1FF61" stroke="rgba(120,120,120,0.5)" stroke-miterlimit="10" points="820.5,696.5 860.5,696.5 860.5,612.5 917.5,612.5
	   917.5,572.5 860.5,572.5 860.5,510.5 820.5,510.5 820.5,572.5 687,572.5 860.5,271.3 860.5,191.3 617.8,612.5 653,612.5
	   820.5,612.5 " />
</svg>